# AST/ASF file generated using VICON BodyLanguage
# -----------------------------------------------
:version 1.10
:name VICON
:units
  mass 1.0
  length 0.45
  angle deg
:documentation
   .ast/.asf automatically generated from VICON data using
   VICON BodyBuilder and BodyLanguage model FoxedUp or BRILLIANT.MOD
:root
   order TX TY TZ RX RY RZ
   axis XYZ
   position 0 0 0  
   orientation 0 0 0 
:bonedata
  begin
     id 1 
     name lhipjoint
     direction 0.64773 -0.699417 0.302095 
     length 2.48597 
     axis 0 0 0  XYZ
  end
  begin
     id 2 
     name lfemur
     direction 0.34202 -0.939693 0  
     length 6.71947  
     axis 0 0 20  XYZ
    dof rx ry rz
    limits (-160.0 20.0)
           (-70.0 70.0)
           (-60.0 70.0)
  end
  begin
     id 3 
     name ltibia
     direction 0.34202 -0.939693 0   
     length 8.08777   
     axis 0 0 20   XYZ
    dof rx
    limits (-10.0 170.0)
  end
  begin
     id 4 
     name lfoot
     direction 0.0808503 -0.222134 0.971658   
     length 2.08264   
     axis -90 7.62852e-016 20   XYZ
    dof rx rz
    limits (-45.0 90.0)
           (-70.0 20.0)
  end
  begin
     id 5 
     name ltoes
     direction 1.53502e-011 -4.22007e-011 1   
     length 1.04662   
     axis -90 7.62852e-016 20   XYZ
    dof rx
    limits (-90.0 20.0)
  end
  begin
     id 6 
     name rhipjoint
     direction -0.610924 -0.726792 0.313919   
     length 2.39233  
     axis 0 0 0  XYZ 
  end
  begin
     id 7 
     name rfemur
     direction -0.34202 -0.939693 0   
     length 6.96955   
     axis 0 0 -20   XYZ
    dof rx ry rz
    limits (-160.0 20.0)
           (-70.0 70.0)
           (-70.0 60.0)
  end
  begin
     id 8 
     name rtibia
     direction -0.34202 -0.939693 0   
     length 8.19584   
     axis 0 0 -20   XYZ
    dof rx
    limits (-10.0 170.0)
 end
 begin
     id 9 
     name rfoot
     direction -0.077777 -0.213691 0.9738   
     length 2.07539  
     axis -90 -7.62852e-016 -20   XYZ
    dof rx rz
    limits (-45.0 90.0)
           (-20.0 70.0)
  end
  begin
     id 10 
     name rtoes
     direction -1.53558e-011 -4.22006e-011 1   
     length 1.04381   
     axis -90 -7.62852e-016 -20   XYZ
    dof rx
    limits (-90.0 20.0)
  end
  begin
     id 11 
     name lowerback
     direction -0.00971646 0.996074 0.0879841   
     length 1.67643   
     axis 0 0 0   XYZ
    dof rx ry rz
    limits (-20.0 45.0)
           (-30.0 30.0)
           (-30.0 30.0)
  end
  begin
     id 12 
     name upperback
     direction 0.0127391 0.991676 0.128127   
     length 1.63741   
     axis 0 0 0   XYZ
    dof rx ry rz
    limits (-20.0 45.0)
           (-30.0 30.0)
           (-30.0 30.0)
  end
  begin
     id 13 
     name thorax
     direction 0.0167583 0.996049 0.0872067   
     length 1.65931   
     axis 0 0 0   XYZ
    dof rx ry rz
    limits (-20.0 45.0)
           (-30.0 30.0)
           (-30.0 30.0)
  end
  begin
     id 14 
     name lowerneck
     direction -0.0317829 0.998312 0.0486079   
     length 1.79021   
     axis 0 0 0   XYZ
    dof rx ry rz
    limits (-20.0 45.0)
           (-30.0 30.0)
           (-30.0 30.0)
  end
  begin
     id 15 
     name upperneck
     direction 0.0896851 0.972452 -0.215159   
     length 1.78797   
     axis 0 0 0   XYZ
    dof rx ry rz
    limits (-20.0 45.0)
           (-30.0 30.0)
           (-30.0 30.0)
  end
  begin
     id 16
     name head
     direction 0.0310949 0.996503 -0.0775582  
     length 1.81549  
     axis 0 0 0   XYZ
    dof rx ry rz
    limits (-20.0 45.0)
           (-30.0 30.0)
           (-30.0 30.0)
  end
  begin
     id 17 
     name lclavicle
     direction 0.853638 0.502051 -0.138733  
     length 3.31627  
     axis 0 0 0   XYZ
    dof ry rz
    limits (-20.0 10.0)
           (0.0 20.0)
  end
  begin
     id 18 
     name lhumerus
     direction 1 -4.48962e-011 -1.41788e-018   
     length 5.54893   
     axis 180 -30 -90   XYZ
    dof rx ry rz
    limits (-60.0 90.0)
           (-90.0 90.0)
           (-90.0 90.0)
  end
  begin
     id 19
     name lradius
     direction 1 -4.48962e-011 -4.95754e-027   
     length 3.02898   
     axis 180 -30 -90   XYZ
    dof rx
    limits (-10.0 170.0)
  end
  begin
     id 20
     name lwrist
     direction 1 -4.48952e-011 -1.03764e-026   
     length 1.51449   
     axis 9.09556e-015 90 90   XYZ
    dof ry
    limits (-180.0 0.0)
 end
  begin
     id 21 
     name lhand
     direction 1 -4.4902e-011 -2.07528e-026   
     length 0.640951   
     axis 1.3242e-014 90 90   XYZ
    dof rx rz
    limits (-90.0 90.0)
           (-45.0 45.0)
  end
  begin
     id 22 
     name lfingers
     direction 1 -4.49014e-011 -4.15056e-026   
     length 0.516751   
     axis 2.64841e-014 90 90   XYZ
    dof rx
    limits (0.0 90.0)
  end
  begin
     id 23
     name lthumb
     direction 0.707107 -6.35008e-011 0.707107   
     length 0.741954   
     axis -90 45 2.85299e-015   XYZ
    dof rx rz
    limits (-45.0 45.0)
           (-45.0 45.0)
  end
  begin
     id 24 
     name rclavicle
     direction -0.888531 0.455324 -0.0565039   
     length 3.20126  
     axis 0 0 0   XYZ 
    dof ry rz
    limits (-10.0 20.0)
           (-20.0 0.0)
  end
  begin
     id 25 
     name rhumerus
     direction -1 -4.48946e-011 -8.98298e-028  
     length 5.3519   
     axis 180 30 90   XYZ
    dof rx ry rz
    limits (-90.0 60.0)
           (-90.0 90.0)
           (-90.0 90.0)
  end
  begin
     id 26 
     name rradius
     direction -1 -4.4899e-011 -3.18779e-027   
     length 3.02531   
     axis 180 30 90   XYZ
    dof rx
    limits (-10.0 170.0)
  end
  begin
     id 27 
     name rwrist
     direction -1 -4.4897e-011 -1.03764e-026   
     length 1.51266   
     axis 9.09556e-015 -90 -90   XYZ
    dof ry
    limits (-180.0 0.0)
  end
  begin
     id 28
     name rhand
     direction -1 -4.48941e-011 -2.07528e-026   
     length 0.78389   
     axis 1.3242e-014 -90 -90   XYZ
    dof rx rz
    limits (-90.0 90.0)
           (-45.0 45.0)
  end
  begin
     id 29
     name rfingers
     direction -1 -4.49012e-011 -4.15056e-026   
     length 0.631992   
     axis 2.64841e-014 -90 -90   XYZ
    dof rx
    limits (0.0 90.0)
  end
  begin
     id 30
     name rthumb
     direction -0.707107 -6.3496e-011 0.707107   
     length 0.907418   
     axis -90 -45 -2.85299e-015   XYZ
    dof rx rz
    limits (-45.0 45.0)
           (-45.0 45.0)
  end
:hierarchy
  begin
    root lhipjoint rhipjoint lowerback
    lhipjoint lfemur
    lfemur ltibia
    ltibia lfoot
    lfoot ltoes
    rhipjoint rfemur
    rfemur rtibia
    rtibia rfoot
    rfoot rtoes
    lowerback upperback
    upperback thorax
    thorax lowerneck lclavicle rclavicle
    lowerneck upperneck
    upperneck head
    lclavicle lhumerus
    lhumerus lradius
    lradius lwrist
    lwrist lhand lthumb
    lhand lfingers
    rclavicle rhumerus
    rhumerus rradius
    rradius rwrist
    rwrist rhand rthumb
    rhand rfingers
  end

#!OML:ASF E:\Style3\Style3.ASF
:FULLY-SPECIFIED
:DEGREES
415
root 0.136774 17.7895 0.727646 -115.632 88.788 230.743
lowerback -12.7174 -1.79512 -0.804795
upperback -10.2931 -1.65693 2.15533
thorax -3.62151 -0.449099 2.53428
lowerneck -15.5502 -2.33846 -3.79386
upperneck 26.2554 -3.32695 5.10487
head 11.2369 -1.08307 2.07417
rclavicle 1.00386e-014 0
rhumerus 45.807 64.8804 2.57535
rradius 100.981
rwrist -31.5592
rhand -16.348 22.7899
rfingers 7.12502
rthumb 9.86446 -6.959
lclavicle 1.00386e-014 0
lhumerus 27.599 -68.6955 11.2024
lradius 103.201
lwrist 58.3485
lhand -10.2622 20.8795
lfingers 7.12502
lthumb 15.7311 50.2602
rfemur -12.945 11.2685 18.6361
rtibia 15.5259
rfoot -15.3051 -20.6573
rtoes -15.081
lfemur -4.9709 -23.6181 -12.7182
ltibia 4.77083e-015
lfoot -11.5304 24.8605
ltoes -10.2111
416
root 0.138825 17.7899 0.72781 -113.255 88.8193 233.128
lowerback -12.6557 -1.81394 -0.80269
upperback -10.3582 -1.67619 2.19184
thorax -3.72318 -0.454207 2.5718
lowerneck -15.5743 -2.30815 -3.80895
upperneck 26.3144 -3.27332 5.08219
head 11.2609 -1.06177 2.07715
rclavicle 5.96354e-015 6.75868e-015
rhumerus 45.7075 65.0141 2.1391
rradius 100.906
rwrist -31.729
rhand -15.9287 22.6619
rfingers 7.12502
rthumb 10.269 -7.06742
lclavicle 5.96354e-015 6.75868e-015
lhumerus 26.8257 -68.9192 12.139
lradius 103.25
lwrist 58.1105
lhand -10.1049 21.0978
lfingers 7.12502
lthumb 15.8826 50.4664
rfemur -12.9028 11.2664 18.6404
rtibia 15.4904
rfoot -15.3399 -20.5875
rtoes -15.0831
lfemur -4.9327 -23.5623 -12.7443
ltibia -1.27222e-014
lfoot -11.4551 24.8718
ltoes -10.4867
417
root 0.140103 17.7902 0.728563 -110.854 88.8129 235.521
lowerback -12.695 -1.81366 -0.738035
upperback -10.3898 -1.67763 2.18485
thorax -3.73816 -0.456961 2.52767
lowerneck -15.4834 -2.30064 -3.75183
upperneck 26.2822 -3.26651 5.03708
head 11.2282 -1.05982 2.05149
rclavicle 3.97569e-016 -8.74653e-015
rhumerus 45.428 65.0366 1.52542
rradius 100.828
rwrist -31.8712
rhand -15.3738 22.4575
rfingers 7.12502
rthumb 10.8042 -7.24462
lclavicle 3.97569e-016 -8.74653e-015
lhumerus 26.3647 -69.1043 12.6826
lradius 103.349
lwrist 57.8106
lhand -10.0585 21.2059
lfingers 7.12502
lthumb 15.9273 50.5709
rfemur -12.8755 11.3189 18.6671
rtibia 15.4432
rfoot -15.3424 -20.5861
rtoes -15.1028
lfemur -4.92713 -23.5164 -12.7085
ltibia -1.59028e-015
lfoot -11.6855 24.8198
ltoes -9.7874
418
root 0.141528 17.7895 0.729859 -109.527 88.8688 236.824
lowerback -12.7668 -1.80636 -0.776462
upperback -10.3968 -1.66306 2.16732
thorax -3.70734 -0.447565 2.53092
lowerneck -15.5182 -2.32115 -3.77157
upperneck 26.3238 -3.29859 5.06626
head 11.2537 -1.07146 2.06171
rclavicle -1.16289e-014 7.15625e-015
rhumerus 44.8969 64.9695 0.811615
rradius 100.861
rwrist -31.9836
rhand -14.8241 22.2346
rfingers 7.12502
rthumb 11.3344 -7.43911
lclavicle -1.16289e-014 7.15625e-015
lhumerus 26.1761 -69.1894 13.0154
lradius 103.393
lwrist 57.2992
lhand -9.829 21.1585
lfingers 7.12502
lthumb 16.1483 50.5058
rfemur -12.8987 11.3831 18.6112
rtibia 15.4134
rfoot -15.3494 -20.583
rtoes -14.8705
lfemur -4.93842 -23.4697 -12.7456
ltibia 0
lfoot -11.6996 24.8164
ltoes -9.76885
419
root 0.144525 17.7886 0.729883 -108.306 88.8375 238.055
lowerback -12.7922 -1.81941 -0.724254
upperback -10.4147 -1.68221 2.18268
thorax -3.71327 -0.458474 2.51562
lowerneck -15.5269 -2.32352 -3.77014
upperneck 26.375 -3.30593 5.07829
head 11.2754 -1.07178 2.06586
rclavicle 1.94809e-014 -2.3059e-014
rhumerus 44.7394 64.9164 0.414273
rradius 100.855
rwrist -32.1583
rhand -14.3278 22.0285
rfingers 7.12502
rthumb 11.813 -7.61831
lclavicle 1.94809e-014 -2.3059e-014
lhumerus 25.8674 -69.1657 13.4687
lradius 103.359
lwrist 56.5897
lhand -9.19209 21.0657
lfingers 7.12502
lthumb 16.7615 50.3621
rfemur -12.8816 11.3892 18.652
rtibia 15.4134
rfoot -15.4 -20.5449
rtoes -14.5188
lfemur -4.90561 -23.4578 -12.7173
ltibia -3.18055e-015
lfoot -11.8226 24.8036
ltoes -9.78869
420
root 0.147045 17.7884 0.729587 -106.682 88.8458 239.675
lowerback -12.8162 -1.83305 -0.664089
upperback -10.4549 -1.70131 2.17652
thorax -3.74479 -0.469525 2.47364
lowerneck -15.4747 -2.29643 -3.80301
upperneck 26.4024 -3.28379 5.17001
head 11.2765 -1.0528 2.10941
rclavicle -2.78299e-015 9.93923e-015
rhumerus 44.7899 64.906 0.154568
rradius 100.816
rwrist -32.3337
rhand -13.725 21.8385
rfingers 7.12502
rthumb 12.3943 -7.77409
lclavicle -2.78299e-015 9.93923e-015
lhumerus 25.3982 -69.0689 14.0284
lradius 103.321
lwrist 55.7002
lhand -8.60496 21.0316
lfingers 7.12502
lthumb 17.3267 50.2793
rfemur -12.9084 11.3433 18.659
rtibia 15.451
rfoot -15.347 -20.4655
rtoes -14.7019
lfemur -4.88864 -23.4242 -12.7216
ltibia 4.77083e-015
lfoot -11.8723 24.7959
ltoes -9.8084
